<svg xmlns="http://www.w3.org/2000/svg" width="20" height="13.333" viewBox="0 0 20 13.333"><defs><style>.a{fill:#565656;}</style></defs><path class="a" d="M8.952,23.9h18.1a.952.952,0,0,0,0-1.9H8.952a.952.952,0,0,0,0,1.9Zm18.1,9.524H8.952a.952.952,0,1,0,0,1.9h18.1a.952.952,0,1,0,0-1.9Zm-.116-6.5L25.52,25.29a.476.476,0,0,0-.731.012l-1.317,1.637a.476.476,0,0,0,.37.775h2.729a.476.476,0,0,0,.361-.787Zm-.361,2.692H23.842a.476.476,0,0,0-.371.775l1.317,1.637a.476.476,0,0,0,.731.012l1.412-1.637a.476.476,0,0,0-.36-.787Zm-17.618-1.9h11.9a.952.952,0,1,0,0-1.9H8.952a.952.952,0,0,0,0,1.9Zm0,3.81h11.9a.952.952,0,1,0,0-1.9H8.952a.952.952,0,0,0,0,1.9Z" transform="translate(-8 -22)"/></svg>